<?xml version="1.0" standalone="no"?>
<!DOCTYPE svg PUBLIC "-//W3C//DTD SVG 20010904//EN"
 "http://www.w3.org/TR/2001/REC-SVG-20010904/DTD/svg10.dtd">
<svg version="1.0" xmlns="http://www.w3.org/2000/svg"
 width="81.000000pt" height="80.000000pt" viewBox="0 0 81.000000 80.000000"
 preserveAspectRatio="xMidYMid meet">
<metadata>
Created by potrace 1.16, written by Peter Selinger 2001-2019
</metadata>
<g transform="translate(0.000000,80.000000) scale(0.100000,-0.100000)"
fill="#000000" stroke="none">
<path d="M309 707 c-172 -65 -264 -241 -214 -413 43 -148 164 -237 320 -238
92 0 160 25 230 87 95 82 131 237 84 361 -27 73 -94 148 -164 184 -61 31 -196
41 -256 19z m248 -28 c42 -22 51 -32 72 -85 17 -41 23 -74 21 -109 -2 -27 -3
-63 -4 -80 0 -16 -5 -33 -10 -37 -14 -9 -17 -41 -4 -49 7 -5 7 -12 -1 -25 -10
-18 -10 -18 -11 1 -1 11 -4 14 -7 8 -2 -7 -12 -13 -20 -13 -13 0 -13 -2 -2
-17 12 -14 12 -16 -1 -11 -8 2 -34 -11 -59 -29 -71 -54 -101 -66 -184 -71 -42
-3 -80 -9 -83 -14 -3 -5 -13 -3 -21 4 -9 7 -34 22 -57 33 -62 30 -90 94 -90
205 0 73 4 92 26 136 69 133 162 187 310 181 57 -3 89 -10 125 -28z"/>
</g>
</svg>
